<svg width="80" height="224" viewBox="0 0 80 224" fill="none" xmlns="http://www.w3.org/2000/svg">
<path d="M78.4595 221.44C77.0835 221.879 37.8519 221.375 36.3726 220.406C35.8041 220.045 35.5457 214.328 35.4294 207.402V207.189C35.4294 205.762 35.3842 204.289 35.3777 202.803C35.3777 202.596 35.3777 202.389 35.3777 202.189C35.3261 192.202 35.4811 181.834 35.4811 181.834L61.7281 182.099L60.9335 202.234L60.9012 203.035L60.7397 207.209V207.635C60.7397 207.635 75.6558 214.573 77.1739 215.8C78.692 217.028 79.8355 221.001 78.4595 221.44Z" fill="#AD6359"/>
<path d="M78.4646 221.44C77.0886 221.879 37.857 221.375 36.3776 220.406C35.8092 220.045 35.5508 214.328 35.4345 207.402V207.189C35.4345 205.762 35.3893 204.289 35.3828 202.803C35.3828 202.596 35.3828 202.389 35.3828 202.189L60.945 202.26L60.9127 203.061L60.7512 207.234V207.661C60.7512 207.661 75.6609 214.573 77.179 215.8C78.6971 217.028 79.8405 221.001 78.4646 221.44Z" fill="#EBEBEB"/>
<path d="M78.465 221.44C77.6187 221.711 62.4184 221.621 50.519 221.285C43.09 221.085 36.953 220.775 36.3781 220.406C35.8032 220.038 35.5577 214.489 35.4414 207.693C35.4414 207.596 35.4414 207.499 35.4414 207.402C35.4414 207.305 35.4414 207.254 35.4414 207.183L60.7581 207.234V207.661C60.7581 207.661 75.6937 214.573 77.2053 215.807C78.7169 217.041 79.841 221.001 78.465 221.44Z" fill="#FFC727"/>
<path d="M78.0415 219.909C71.4264 219.663 44.7402 219.263 38.1833 219.541C38.1316 219.541 38.1316 219.579 38.1833 219.586C44.7337 219.973 71.42 220.135 78.035 220.019C78.1772 220.019 78.1771 219.915 78.0415 219.909Z" fill="#263238"/>
<path d="M63.559 207.338C60.975 206.821 57.7773 207.176 55.7618 209.005C55.6843 209.076 55.7618 209.185 55.8716 209.16C58.3697 208.392 60.9423 207.892 63.5461 207.667C63.5846 207.661 63.6199 207.642 63.6458 207.613C63.6717 207.584 63.6868 207.547 63.6883 207.508C63.6898 207.469 63.6778 207.431 63.6542 207.4C63.6306 207.369 63.597 207.347 63.559 207.338Z" fill="#263238"/>
<path d="M65.4262 208.494C62.8422 207.977 59.6445 208.333 57.629 210.161C57.5515 210.232 57.629 210.342 57.7388 210.316C60.2284 209.549 62.7923 209.049 65.3875 208.823C65.4274 208.822 65.4654 208.806 65.4947 208.779C65.5241 208.752 65.5427 208.715 65.5474 208.675C65.5521 208.636 65.5424 208.596 65.5202 208.562C65.498 208.529 65.4647 208.505 65.4262 208.494Z" fill="#263238"/>
<path d="M67.2856 209.651C64.7016 209.134 61.5039 209.489 59.4884 211.317C59.4109 211.388 59.4884 211.498 59.5982 211.472C62.0965 210.707 64.6691 210.209 67.2727 209.986C67.3172 209.988 67.3606 209.972 67.3933 209.942C67.4261 209.911 67.4454 209.869 67.4471 209.825C67.4488 209.78 67.4328 209.737 67.4025 209.704C67.3722 209.672 67.3301 209.652 67.2856 209.651Z" fill="#263238"/>
<path d="M67.0203 201.705C66.0125 200.283 64.1004 200.897 63.0022 201.795C61.1453 203.372 59.7371 205.411 58.9195 207.706C58.9152 207.716 58.9134 207.726 58.9143 207.737C58.9151 207.748 58.9186 207.758 58.9243 207.767C58.9301 207.776 58.9379 207.783 58.9472 207.788C58.9565 207.793 58.967 207.796 58.9776 207.796C58.9776 207.997 59.1585 208.21 59.3846 208.126C61.5422 207.357 63.9453 206.834 65.8058 205.4C66.8911 204.579 67.9699 203.055 67.0203 201.705ZM62.4143 206.291C61.3613 206.698 60.2954 207.047 59.2618 207.486C60.0629 206.336 60.8058 205.161 61.7231 204.088C62.158 203.57 62.6239 203.078 63.1185 202.615C63.9066 201.924 66.9945 200.464 66.4906 203.313C66.2193 204.883 63.674 205.813 62.4143 206.291Z" fill="#263238"/>
<path d="M52.3142 206.937C54.446 207.88 56.9137 207.867 59.1941 208.119C59.4267 208.119 59.5494 207.893 59.5106 207.699C59.5207 207.696 59.5298 207.691 59.5375 207.683C59.5451 207.676 59.5509 207.667 59.5547 207.657C59.5584 207.647 59.5598 207.637 59.5589 207.626C59.558 207.615 59.5548 207.605 59.5494 207.596C58.221 205.554 56.3814 203.895 54.2134 202.783C52.9214 202.137 50.9318 202.008 50.2858 203.623C49.6398 205.238 51.0674 206.388 52.3142 206.937ZM51.1643 205.064C50.0274 202.409 53.3672 203.126 54.2845 203.617C54.8771 203.945 55.4449 204.317 55.9835 204.728C57.09 205.585 58.1509 206.499 59.1618 207.467C58.0507 207.273 56.9331 207.183 55.8155 207.028C54.4848 206.853 51.8233 206.53 51.1773 205.064H51.1643Z" fill="#263238"/>
<path d="M50.5269 221.285C43.0979 221.085 36.9609 220.775 36.3859 220.406C35.811 220.038 35.5655 214.489 35.4492 207.693C38.4854 210.413 46.0565 217.163 50.5269 221.285Z" fill="#263238"/>
<path d="M27.4258 68.8224C27.4258 68.8224 33.3173 135.115 34.2734 140.173C34.4995 141.329 34.6351 147.596 34.7256 155.645C34.9258 173.222 34.8096 204.915 34.8096 204.915H62.4648C62.4648 204.915 61.6444 150.005 60.417 139.895C59.1896 129.785 51.373 68.8353 51.373 68.8353L27.4258 68.8224Z" fill="#37474F"/>
<path d="M61.2132 200.096C56.8979 200.006 58.1383 199.973 53.823 199.928C51.7106 199.928 37.8345 199.792 35.8577 200.115C35.8457 200.115 35.8342 200.12 35.8257 200.129C35.8173 200.137 35.8125 200.149 35.8125 200.161C35.8125 200.173 35.8173 200.184 35.8257 200.193C35.8342 200.201 35.8457 200.206 35.8577 200.206C37.8345 200.529 51.7106 200.413 53.823 200.387C58.1383 200.348 56.8979 200.316 61.2132 200.225C61.2303 200.225 61.2468 200.218 61.2589 200.206C61.271 200.194 61.2778 200.178 61.2778 200.161C61.2778 200.143 61.271 200.127 61.2589 200.115C61.2468 200.103 61.2303 200.096 61.2132 200.096Z" fill="#263238"/>
<path d="M40.0631 168.707C40.0286 164.693 39.9985 160.681 39.9726 156.672C39.9726 152.796 39.9726 148.92 39.7659 145.044C39.3912 137.182 37.8279 129.456 36.6651 121.685C35.5023 113.913 34.585 106.11 33.7258 98.2994C32.7633 89.5396 31.917 80.7605 31.0191 71.9943C31.0191 71.9361 30.9157 71.9361 30.9222 71.9943C32.2142 87.6533 33.6806 103.306 35.8447 118.868C36.3873 122.744 36.9773 126.607 37.6147 130.457C38.2607 134.333 38.9067 138.261 39.2103 142.208C39.514 146.155 39.5592 149.96 39.5979 153.836C39.6453 157.85 39.6862 161.859 39.7207 165.865C39.8047 174.766 39.8886 188.475 39.9791 197.376C39.9858 197.407 40.0026 197.434 40.0266 197.453C40.0507 197.472 40.0806 197.483 40.1115 197.483C40.1424 197.483 40.1723 197.472 40.1964 197.453C40.2205 197.434 40.2373 197.407 40.2439 197.376C40.1923 189.392 40.1212 176.646 40.0631 168.707Z" fill="#263238"/>
<path d="M21.5938 68.8224C21.5938 68.8224 33.3186 135.115 34.2747 140.173C34.5008 141.329 34.6365 147.596 34.7269 155.645L47.9441 68.8224H21.5938Z" fill="#263238"/>
<path d="M46.3479 223.778C44.9461 224.121 5.84376 220.833 4.43548 219.767C3.89284 219.366 4.04142 213.643 4.43548 206.73C4.43548 206.659 4.43548 206.582 4.43548 206.511C4.513 205.09 4.59697 203.623 4.70033 202.137L4.7391 201.491C5.3851 191.524 6.28304 181.194 6.28304 181.194L32.4396 183.352L30.2238 203.378L30.1398 204.172L29.6876 208.326L29.6424 208.752C29.6424 208.752 44.0417 216.705 45.4694 218.042C46.8971 219.379 47.7498 223.436 46.3479 223.778Z" fill="#AD6359"/>
<path d="M46.3479 223.778C44.9461 224.121 5.84376 220.833 4.43548 219.767C3.89284 219.366 4.04142 213.643 4.43548 206.731C4.43548 206.659 4.43548 206.582 4.43548 206.511C4.513 205.09 4.59697 203.623 4.70033 202.137L4.7391 201.491L30.2238 203.371L30.1398 204.166L29.6876 208.32L29.6424 208.746C29.6424 208.746 44.0417 216.698 45.4694 218.036C46.8971 219.373 47.7498 223.436 46.3479 223.778Z" fill="#EBEBEB"/>
<path d="M46.3479 223.779C44.9461 224.121 5.84376 220.833 4.43548 219.767C3.89284 219.366 4.04142 213.643 4.43548 206.731C4.43548 206.66 4.43548 206.582 4.43548 206.511L29.6876 208.352L29.6424 208.778C29.6424 208.778 44.0417 216.731 45.4694 218.068C46.8971 219.405 47.7498 223.436 46.3479 223.779Z" fill="#FFC727"/>
<path d="M46.0085 222.222C39.4322 221.504 12.8364 219.243 6.2795 219.03C6.22782 219.03 6.22136 219.069 6.2795 219.075C12.7783 219.928 39.3935 221.976 46.002 222.305C46.1635 222.338 46.1765 222.26 46.0085 222.222Z" fill="#263238"/>
<path d="M32.4794 208.656C29.8954 207.958 26.7235 208.087 24.5852 209.767C24.5013 209.831 24.5853 209.954 24.6822 209.935C27.2247 209.342 29.8236 209.023 32.4342 208.985C32.4746 208.985 32.5136 208.97 32.544 208.943C32.5744 208.917 32.5942 208.88 32.5996 208.84C32.6051 208.8 32.596 208.759 32.5739 208.725C32.5518 208.691 32.5182 208.667 32.4794 208.656Z" fill="#263238"/>
<path d="M34.2603 209.941C31.6763 209.243 28.498 209.373 26.3598 211.052C26.2822 211.117 26.3598 211.24 26.4567 211.22C28.9993 210.628 31.5982 210.309 34.2087 210.271C34.2497 210.272 34.2898 210.258 34.3215 210.232C34.3532 210.206 34.3742 210.169 34.3805 210.129C34.3869 210.088 34.3782 210.047 34.356 210.012C34.3339 209.978 34.2998 209.952 34.2603 209.941Z" fill="#263238"/>
<path d="M36.0375 211.227C33.4535 210.529 30.2752 210.658 28.137 212.338C28.0594 212.402 28.137 212.525 28.2403 212.506C30.7828 211.912 33.3818 211.594 35.9923 211.556C36.0328 211.556 36.0718 211.541 36.1022 211.514C36.1326 211.488 36.1523 211.451 36.1578 211.411C36.1633 211.371 36.1542 211.33 36.1321 211.296C36.11 211.262 36.0764 211.238 36.0375 211.227Z" fill="#263238"/>
<path d="M36.3149 203.287C35.417 201.795 33.4661 202.267 32.3033 203.087C30.3275 204.524 28.7674 206.459 27.7812 208.694C27.7813 208.746 27.7813 208.778 27.8329 208.791C27.827 208.842 27.833 208.893 27.8504 208.94C27.8679 208.988 27.8963 209.031 27.9334 209.066C27.9706 209.1 28.0153 209.125 28.0641 209.14C28.1128 209.154 28.1642 209.156 28.2141 209.147C30.4169 208.533 32.8588 208.152 34.8097 206.879C35.9984 206.11 37.1805 204.696 36.3149 203.287ZM31.3988 207.532C30.32 207.861 29.2347 208.132 28.1688 208.501C29.0112 207.379 29.9103 206.301 30.8627 205.271C31.3308 204.781 31.8315 204.323 32.3614 203.901C33.1947 203.255 36.3731 202.021 35.6754 204.831C35.3072 206.395 32.6973 207.144 31.4118 207.532H31.3988Z" fill="#263238"/>
<path d="M21.293 207.46C23.3537 208.552 25.815 208.714 28.0695 209.121C28.3021 209.166 28.4442 208.927 28.4184 208.733C28.4284 208.73 28.4376 208.724 28.4452 208.717C28.4528 208.71 28.4587 208.701 28.4624 208.691C28.4661 208.681 28.4676 208.67 28.4667 208.66C28.4658 208.649 28.4625 208.639 28.4571 208.63C27.2809 206.499 25.5627 204.716 23.4765 203.462C22.2491 202.745 20.2465 202.454 19.5036 204.017C18.7607 205.581 20.0914 206.821 21.293 207.46ZM20.2788 205.522C19.3292 202.79 22.6108 203.74 23.5088 204.295C24.0744 204.669 24.6139 205.082 25.1238 205.529C26.1673 206.463 27.1613 207.45 28.1018 208.488C27.0036 208.216 25.899 208.042 24.7943 207.842C23.4636 207.525 20.815 207.021 20.2788 205.51V205.522Z" fill="#263238"/>
<path d="M30.8091 206.408L3.17969 205.238C3.17969 205.238 10.725 144.605 10.8606 140.864C11.2224 131.174 17.6501 68.7773 17.6501 68.7773H51.3971C51.3971 68.7773 49.2653 83.1896 45.6284 92.324C43.1803 93.1809 40.8166 94.2621 38.5676 95.554C38.5676 95.554 35.4022 136.827 35.2859 141.976C35.0275 152.169 30.8091 206.408 30.8091 206.408Z" fill="#37474F"/>
<path d="M30.0706 201.343C25.7682 201.072 27.0086 201.091 22.6933 200.865C20.5873 200.755 6.72417 200.051 4.74095 200.29C4.69573 200.29 4.69573 200.367 4.74095 200.38C6.67895 200.787 20.5744 201.259 22.6804 201.324C26.9956 201.466 25.7618 201.382 30.0771 201.472C30.0942 201.471 30.1103 201.464 30.1218 201.451C30.1333 201.438 30.1393 201.421 30.1384 201.404C30.1376 201.387 30.13 201.371 30.1172 201.36C30.1045 201.348 30.0877 201.342 30.0706 201.343Z" fill="#263238"/>
<path d="M20.1255 72.4983C18.8723 88.2154 17.5867 103.939 16.1462 119.656C14.7056 135.373 13.0195 151.155 10.9782 166.847C9.83475 175.6 8.54275 187.945 7.17969 196.679C7.17969 196.737 7.25721 196.763 7.27013 196.679C10.0544 181.175 12.1022 161.898 13.8399 146.233C15.5777 130.567 17.0053 114.856 18.278 99.1458C18.995 90.2568 19.641 81.3614 20.3258 72.4724C20.3322 72.3885 20.1707 72.3885 20.1255 72.4983Z" fill="#263238"/>
<path d="M46.8239 91.7167C43.9618 92.7649 41.1972 94.0618 38.5615 95.5927C38.5393 95.603 38.522 95.6217 38.5135 95.6447C38.505 95.6677 38.506 95.6932 38.5163 95.7154C38.5266 95.7377 38.5453 95.755 38.5683 95.7635C38.5913 95.7719 38.6168 95.7709 38.6391 95.7606C41.4233 94.5655 44.2593 93.4221 46.9725 92.072C47.0196 92.0523 47.0569 92.0147 47.0763 91.9674C47.0957 91.9202 47.0955 91.8672 47.0758 91.82C47.0561 91.7729 47.0185 91.7356 46.9713 91.7162C46.924 91.6968 46.871 91.697 46.8239 91.7167Z" fill="#263238"/>
<path d="M47.7113 72.6144C47.7113 72.5175 47.5369 72.4981 47.5369 72.6144C47.5369 75.9155 47.3496 78.8225 47.0718 81.9168C46.9426 83.3509 45.7798 91.2709 43.2992 90.6959C42.8857 90.599 42.6532 90.1856 42.6079 89.559C42.6127 88.7385 42.7234 87.9221 42.9374 87.13C43.2087 85.4698 43.4348 83.8096 43.5834 82.13C43.872 79.0103 43.8374 75.8691 43.48 72.7565C43.475 72.739 43.4644 72.7235 43.4499 72.7125C43.4353 72.7016 43.4175 72.6956 43.3993 72.6956C43.381 72.6956 43.3633 72.7016 43.3487 72.7125C43.3341 72.7235 43.3235 72.739 43.3185 72.7565C43.3921 77.0761 43.1394 81.395 42.5627 85.6765C42.2526 87.7373 41.2126 90.8445 43.3702 91.1546C45.5279 91.4647 46.9878 86.2838 47.2462 84.8626C47.9318 80.8173 48.0882 76.7 47.7113 72.6144Z" fill="#263238"/>
<path d="M43.3631 90.8962C43.1395 91.4294 42.9539 91.9777 42.8075 92.537C42.6444 92.9681 42.5655 93.4264 42.575 93.8872C42.575 93.9776 42.6977 93.9841 42.7429 93.9259C42.9998 93.5265 43.1958 93.0911 43.3243 92.6339C43.5117 92.1236 43.7119 91.6197 43.8864 91.1029C43.9138 91.0335 43.9125 90.9561 43.8828 90.8877C43.8531 90.8192 43.7975 90.7653 43.7281 90.7379C43.6587 90.7105 43.5813 90.7118 43.5128 90.7415C43.4444 90.7712 43.3905 90.8268 43.3631 90.8962Z" fill="#263238"/>
<path d="M32.1129 75.2049C32.1208 74.8596 32.0861 74.5146 32.0095 74.1777C32.0047 74.1683 31.9972 74.1603 31.9881 74.1547C31.979 74.1492 31.9685 74.1462 31.9579 74.1462C31.9472 74.1462 31.9367 74.1492 31.9276 74.1547C31.9185 74.1603 31.9111 74.1683 31.9062 74.1777C31.8379 74.4703 31.799 74.7689 31.7899 75.0692C31.7899 75.4116 31.7124 75.7152 31.6736 76.0899C31.6019 76.7888 31.481 77.4817 31.3119 78.1636C30.9975 79.4508 30.3413 80.6292 29.4126 81.5744C28.4865 82.4856 27.3886 83.2036 26.1826 83.6869C24.8479 84.1595 23.4869 84.5542 22.1064 84.869C22.0927 84.869 22.0795 84.8745 22.0698 84.8842C22.0601 84.8939 22.0547 84.907 22.0547 84.9207C22.0547 84.9344 22.0601 84.9476 22.0698 84.9573C22.0795 84.967 22.0927 84.9724 22.1064 84.9724C23.6349 84.9693 25.1484 84.671 26.5638 84.0938C27.8184 83.6231 28.9605 82.8947 29.9165 81.9556C30.8708 80.9853 31.5411 79.7722 31.8545 78.4478C32.0127 77.765 32.1035 77.0683 32.1258 76.3677C32.1441 75.9802 32.1398 75.5919 32.1129 75.2049Z" fill="#263238"/>
<path d="M65.1417 12.039C67.2218 14.552 69.4828 21.3414 69.3989 23.1954C69.3149 25.0495 57.8871 29.2614 56.2721 28.2536C54.6571 27.2459 48.3005 18.2665 48.2424 14.9396C48.1842 11.6127 62.9841 9.44211 65.1417 12.039Z" fill="#AD6359"/>
<path d="M47.9464 7.42659C46.8999 6.33485 43.5148 3.07255 42.0096 4.54543C41.0665 5.46275 43.3404 7.97569 44.2965 8.97053C46.2668 11.0119 47.7913 14.623 48.5019 16.3866C49.2125 18.1502 52.5394 14.6682 52.5394 14.6682C52.5394 14.6682 50.679 10.2625 47.9464 7.42659Z" fill="#AD6359"/>
<path d="M50.7211 18.3568C50.7211 18.3568 51.8903 21.4964 53.796 21.4253C55.7017 21.3542 55.2172 18.654 55.1914 18.4602C55.2495 18.6281 56.3994 21.4834 58.3116 21.2186C60.2237 20.9537 59.4098 18.2987 59.3516 18.1307C59.455 18.2664 60.9279 20.0687 62.3297 19.5325C64.7457 18.6152 61.1217 13.9188 61.4705 11.858C61.4705 11.858 65.0364 12.0583 65.1398 12.0389C65.1398 12.0389 61.7806 7.51692 58.9705 7.181C58.5615 7.12434 58.1455 7.21033 57.7926 7.42447C57.4396 7.63861 57.1712 7.96784 57.0325 8.35672C57.0325 8.35672 56.1087 6.77402 54.5971 6.93552C53.8219 7.0195 53.2663 8.33734 53.2663 8.33734C53.0396 7.98949 52.7211 7.7112 52.3459 7.53332C51.9708 7.35544 51.5537 7.28492 51.141 7.32958C50.0751 7.504 49.5453 8.83476 49.4872 9.35156C49.035 13.3051 50.7211 18.3568 50.7211 18.3568Z" fill="#AD6359"/>
<path d="M49.6108 8.98999C49.6108 8.98999 49.5656 8.98999 49.5591 8.98999C48.9767 12.2007 49.3845 15.5127 50.7284 18.4862C50.7736 18.5766 50.9416 18.5443 50.9093 18.4345C50.0228 15.3655 49.5855 12.1843 49.6108 8.98999Z" fill="#263238"/>
<path d="M53.2615 8.29225C53.2615 8.25349 53.2034 8.25349 53.1969 8.29225C52.5946 11.8376 53.2821 15.4815 55.1349 18.5636C55.206 18.6735 55.3739 18.6993 55.3029 18.5636C54.1207 16.4189 53.1969 11.2832 53.2615 8.29225Z" fill="#263238"/>
<path d="M59.5731 18.2987C57.8031 15.2625 57.1765 11.9679 57.0279 8.48601C57.0279 8.44079 56.9633 8.44725 56.9504 8.48601C56.5628 10.2108 56.8922 12.4137 57.2927 14.1127C57.6358 15.6931 58.3863 17.1563 59.4698 18.3569C59.5021 18.4086 59.5731 18.3633 59.5731 18.2987Z" fill="#263238"/>
<path d="M50.7227 18.3569C51.0037 18.937 51.3367 19.4905 51.7175 20.0107C52.0672 20.5316 52.5487 20.9506 53.1129 21.2251C53.3811 21.3281 53.6779 21.3281 53.9462 21.2251C54.2206 21.127 54.4652 20.9602 54.6568 20.7406C54.8262 20.5054 54.9447 20.2374 55.0048 19.9537C55.0648 19.6701 55.0651 19.3771 55.0056 19.0933L54.7666 17.698L55.4772 18.9254C55.7878 19.4742 56.1848 19.9693 56.6529 20.3918C56.8574 20.5993 57.1037 20.7608 57.3755 20.8655C57.6473 20.9702 57.9384 21.0158 58.2292 20.999C58.5001 20.9827 58.7571 20.8735 58.9571 20.69C59.1571 20.5065 59.2878 20.2598 59.3274 19.9913C59.4023 19.3874 59.3246 18.7744 59.1013 18.2083L58.5263 16.6321L59.5793 17.9241C59.8723 18.2848 60.2086 18.6081 60.5806 18.8866C60.9259 19.1599 61.3436 19.3261 61.7822 19.3647C61.98 19.3737 62.1764 19.3278 62.3498 19.232C62.5231 19.1362 62.6665 18.9943 62.7641 18.822C62.9164 18.4089 62.95 17.9613 62.861 17.53C62.6758 16.5768 62.4166 15.6394 62.0858 14.7264C61.9308 14.2613 61.7757 13.7897 61.6465 13.3116C61.4881 12.8423 61.4308 12.3447 61.4786 11.8517C61.4872 12.3399 61.588 12.8221 61.7757 13.2729C61.9437 13.7315 62.131 14.1837 62.3184 14.6424C62.7191 15.5561 63.0328 16.5057 63.2551 17.4783C63.388 18.001 63.3655 18.551 63.1905 19.061C63.0642 19.3286 62.8623 19.5532 62.6097 19.707C62.3571 19.8609 62.0649 19.9373 61.7693 19.9267C61.2233 19.8959 60.6991 19.7024 60.2641 19.3711C59.8436 19.0701 59.4637 18.7162 59.1336 18.3181L59.6116 18.0339C59.8902 18.6963 59.9904 19.4202 59.9023 20.1334C59.8432 20.5303 59.6466 20.8939 59.3468 21.1605C59.0478 21.4093 58.6809 21.5624 58.2938 21.5998C57.9244 21.6226 57.5544 21.5657 57.2089 21.4331C56.8634 21.3004 56.5505 21.0952 56.2912 20.8311C55.7716 20.3653 55.3348 19.8149 54.9992 19.2032L55.4708 19.0352C55.5312 19.3894 55.514 19.7525 55.4203 20.0994C55.3266 20.4463 55.1587 20.7687 54.9281 21.0443C54.6792 21.3039 54.3678 21.4952 54.0237 21.5998C53.6734 21.7079 53.2952 21.6803 52.9643 21.5223C52.3702 21.1974 51.8798 20.7116 51.5495 20.1205C51.208 19.5658 50.9306 18.9742 50.7227 18.3569Z" fill="#263238"/>
<path d="M54.923 26.9165C54.923 26.9165 42.6038 20.618 47.4294 17.0133C48.857 15.941 56.0212 13.2472 56.5897 14.6748C57.3261 16.5159 54.5418 18.202 52.6297 18.9772C52.6297 18.9772 57.1194 20.534 56.9708 23.9772C56.9335 24.6083 56.7224 25.2167 56.3611 25.7354C55.9997 26.2541 55.502 26.6629 54.923 26.9165Z" fill="#AD6359"/>
<path d="M47.0469 17.3362C47.5553 16.8472 48.1346 16.4378 48.7652 16.1217C49.3918 15.7878 50.0391 15.4944 50.7032 15.2432C52.0223 14.7251 53.3841 14.323 54.773 14.0416C55.1424 13.9642 55.5213 13.9424 55.8971 13.977C56.1245 13.991 56.3455 14.0573 56.5431 14.1708C56.6457 14.2303 56.7374 14.3067 56.8144 14.3969C56.8905 14.4867 56.9496 14.5896 56.9888 14.7005C57.1374 15.0984 57.1374 15.5365 56.9888 15.9344C56.8526 16.2973 56.6512 16.6323 56.3945 16.9228C55.9078 17.4735 55.3284 17.9349 54.6826 18.2858C54.0613 18.6414 53.4134 18.9481 52.7446 19.2032V18.7445C53.2507 18.9421 53.7373 19.1865 54.1981 19.4745C54.6615 19.7538 55.0945 20.0808 55.4901 20.4499C55.8799 20.8293 56.2108 21.2648 56.472 21.7419C56.7364 22.2066 56.9096 22.7175 56.9824 23.2471C56.8456 22.7435 56.6274 22.2656 56.3364 21.8324C56.0392 21.4127 55.6872 21.0347 55.2898 20.7083C54.8909 20.375 54.4578 20.0848 53.9978 19.8427C53.5508 19.5964 53.0814 19.3931 52.596 19.2355L51.9952 19.0481L52.5766 18.7768C53.2066 18.5039 53.8173 18.1888 54.4048 17.8336C54.9852 17.4987 55.5086 17.0735 55.9552 16.5739C56.1691 16.367 56.3266 16.1088 56.4125 15.8239C56.4984 15.5389 56.51 15.2367 56.4462 14.946C56.3041 14.4938 55.5353 14.5132 54.8829 14.6101C54.2304 14.707 53.5392 14.8814 52.8609 15.0494C52.1826 15.2173 51.5172 15.4047 50.8518 15.6179C49.5021 15.99 48.2185 16.5697 47.0469 17.3362Z" fill="#263238"/>
<path d="M40.743 35.8313C51.6345 49.2745 67.468 57.9826 71.3763 55.1467C75.2846 52.3107 62.1127 37.4656 61.8866 37.246C61.1178 36.5096 55.2909 33.4798 44.7094 29.0224C34.3282 24.649 35.8786 29.8299 40.743 35.8313Z" fill="#AD6359"/>
<path d="M56.9842 34.2744L48.78 45.0626C48.78 45.0626 41.8936 37.9566 38.2502 33.2538C34.6068 28.5509 34.9685 24.8945 43.121 27.9307C47.8935 29.6975 52.5274 31.818 56.9842 34.2744Z" fill="#FFC727"/>
<path d="M48.0034 42.5884C49.0047 41.1155 50.0513 39.6685 51.1236 38.2537C51.6598 37.5561 52.1766 36.8455 52.7257 36.1542C53.2748 35.463 53.9014 34.7718 54.4634 34.0612C54.5022 34.0095 54.5797 34.0612 54.541 34.1129C54.0242 34.8235 53.559 35.5664 53.0422 36.277C52.5254 36.9876 51.957 37.724 51.4079 38.4475C50.3269 39.8687 49.2136 41.2641 48.068 42.6336C48.0357 42.6724 47.9453 42.6336 48.0034 42.5884Z" fill="#263238"/>
<path d="M52.7114 39.8817L48.7837 45.0497C48.7837 45.0497 41.8974 37.9437 38.2539 33.2408L37.9051 32.7821L37.7565 32.5689L37.5304 32.2395C37.3366 31.9553 37.1622 31.6775 37.0072 31.4061C36.949 31.3092 36.8973 31.2123 36.8457 31.1154C36.5762 30.6251 36.3597 30.1076 36.1997 29.5715C36.1521 29.4061 36.1154 29.2378 36.0898 29.0676C36.0898 28.9837 36.0898 28.9061 36.0898 28.8286C39.6687 31.3093 48.0667 36.7421 52.7114 39.8817Z" fill="#263238"/>
<path d="M53.0414 75.444C53.0414 75.444 15.6574 76.09 15.4378 75.8575C14.8564 75.2115 22.4081 36.7163 30.2183 28.7835C32.9767 25.9798 38.6679 27.1232 39.6176 27.5819C41.8075 28.6413 43.8682 30.9282 45.5931 35.166C49.0427 43.6415 53.513 74.8368 53.0414 75.444Z" fill="#FFC727"/>
<path opacity="0.1" d="M41.4859 28.8481H30.1615L30.2197 28.7835C30.4832 28.5169 30.7757 28.2808 31.0918 28.0793H40.4911C40.843 28.3082 41.1757 28.5653 41.4859 28.8481ZM42.7327 30.1401H29.0956C28.9148 30.3791 28.7403 30.6375 28.5659 30.9088H43.327C43.1397 30.6375 42.9459 30.3985 42.7779 30.1401H42.7327ZM44.141 32.2008H27.7843C27.6421 32.4528 27.5 32.7112 27.3644 32.976H44.5803C44.4446 32.7112 44.3025 32.4463 44.1539 32.2008H44.141ZM45.194 34.268H26.7119L26.3437 35.0368H45.5363C45.433 34.7719 45.3232 34.5135 45.2069 34.2745L45.194 34.268ZM46.0144 36.3288H25.7752L25.4457 37.0975H46.2792C46.1953 36.8585 46.1113 36.5742 46.0079 36.3288H46.0144ZM46.6604 38.3895H24.9225C24.8256 38.6479 24.7222 38.8998 24.6189 39.1647H46.8865L46.6604 38.3895ZM47.2159 40.4502H24.1408C24.0504 40.7086 23.9535 40.9606 23.863 41.2254H47.4227C47.3408 40.9627 47.2762 40.7043 47.2289 40.4502H47.2159ZM47.7198 42.5174H23.3979C23.3075 42.7694 23.2235 43.0278 23.1395 43.2862H47.8942L47.7198 42.5174ZM48.1849 44.5782H22.7519C22.6679 44.8301 22.5904 45.0885 22.5064 45.3469H48.3981C48.3077 45.0885 48.256 44.8301 48.1979 44.6105L48.1849 44.5782ZM48.6242 46.6389H22.1059C22.0219 46.8909 21.9444 47.1493 21.8669 47.4141H48.8309C48.747 47.1557 48.6953 46.8973 48.6371 46.6389H48.6242ZM49.0441 48.6997H21.4599C21.3824 48.9581 21.3049 49.2165 21.2338 49.4749H49.2379L49.0441 48.6997ZM49.4446 50.7669H20.8527C20.7752 51.0253 20.7041 51.2772 20.633 51.5356H49.5997C49.5545 51.2772 49.5092 51.0188 49.4576 50.7669H49.4446ZM49.8258 52.8276H20.2777C20.2067 53.086 20.1356 53.3444 20.071 53.5963H49.9808C49.9356 53.3379 49.8839 53.086 49.8387 52.8276H49.8258ZM50.194 54.8883H19.7286C19.6576 55.1467 19.593 55.4051 19.5284 55.6635H50.3426C50.3038 55.4051 50.2586 55.1467 50.2069 54.8883H50.194ZM50.5622 56.9555H19.1925C19.1343 57.2139 19.0697 57.4659 19.0051 57.7243H50.6979C50.6591 57.4723 50.6139 57.2139 50.5751 56.9555H50.5622ZM50.8981 59.0163H18.6821C18.624 59.2747 18.5594 59.5331 18.5012 59.785H51.0403C51.0015 59.5331 50.9563 59.2747 50.9111 59.0163H50.8981ZM51.2341 61.077H18.1912C18.133 61.3419 18.0749 61.6003 18.0103 61.8522H51.3697C51.331 61.5938 51.2922 61.3419 51.247 61.077H51.2341ZM51.5635 63.1378H17.7196C17.6614 63.3962 17.6033 63.661 17.5452 63.913H51.6863C51.6475 63.661 51.6087 63.4026 51.5764 63.1378H51.5635ZM51.8671 65.205H17.2609C17.2092 65.4634 17.1511 65.7218 17.0994 65.9737H51.9834L51.8671 65.205ZM52.1643 67.2657H16.8216C16.77 67.5306 16.7183 67.7825 16.6666 68.0344H52.287C52.2483 67.7825 52.216 67.5241 52.1772 67.2657H52.1643ZM52.4485 69.3264H16.4147C16.3544 69.5935 16.3027 69.8519 16.2596 70.1017H52.5648C52.5325 69.8497 52.4679 69.5913 52.4679 69.3264H52.4485ZM52.7069 71.3872H16.0206C15.9689 71.6585 15.9237 71.9169 15.8785 72.1624H52.8167C52.7909 71.9169 52.7586 71.6585 52.7199 71.3872H52.7069ZM52.946 73.4544H15.6459C15.6007 73.7322 15.5684 73.9906 15.5296 74.2231H52.9976C53.0106 73.997 52.9847 73.7386 52.9589 73.4544H52.946ZM15.4004 75.5151C15.3717 75.6274 15.3717 75.7452 15.4004 75.8575C15.5749 76.0319 38.7598 75.6766 48.6371 75.5151H15.4004Z" fill="#030402"/>
<path d="M32.3501 33.4475C29.8307 36.9036 16.9107 51.1866 16.4327 52.5109C15.9547 53.8352 18.9456 56.7616 18.894 57.3107C18.7002 59.5459 13.8745 74.4168 11.943 72.9051C9.39776 70.9155 -1.37752 56.6647 0.147037 50.4954C1.6716 44.3261 26.8333 29.5133 30.8256 28.2278C34.8179 26.9422 34.8372 30.0366 32.3501 33.4475Z" fill="#AD6359"/>
<path d="M22.2018 46.4515L14.8633 36.1478C14.8633 36.1478 23.0739 30.7602 28.5649 28.4604C34.0559 26.1606 36.7627 27.4397 31.7433 34.5393C28.8091 38.7012 25.6227 42.6794 22.2018 46.4515Z" fill="#FFC727"/>
<path d="M17.0311 35.4759C18.1939 36.8239 19.3244 38.202 20.4226 39.6103C20.9652 40.3015 21.5143 40.9863 22.0376 41.6904C22.5609 42.3945 23.0777 43.1827 23.6268 43.9062C23.6655 43.9579 23.588 44.0225 23.5492 43.9708C22.9937 43.3248 22.3994 42.6788 21.8438 41.9682C21.2882 41.2576 20.7198 40.547 20.1642 39.8364C19.066 38.4281 18.0001 36.9875 16.973 35.5276C16.9342 35.4888 16.9988 35.4371 17.0311 35.4759Z" fill="#263238"/>
<path d="M22.1909 46.5032C23.3149 45.0109 24.6392 43.6802 25.8537 42.2654C27.0682 40.8507 28.2762 39.3907 29.4326 37.9178C29.4326 37.9178 29.5165 37.9178 29.4907 37.9566C28.9545 38.7253 28.4313 39.5005 27.8692 40.2499C27.5915 40.6181 27.3008 40.9799 27.0036 41.3416L27.4364 40.9863C27.8792 40.6535 28.3385 40.343 28.8124 40.0561C28.8124 40.0561 28.8641 40.0561 28.8124 40.0949C28.4013 40.4752 27.97 40.8332 27.5204 41.1672C27.1974 41.4127 26.8744 41.6388 26.532 41.8649L26.0152 42.5109C24.8877 43.9665 23.6315 45.3178 22.262 46.5484C22.2232 46.6065 22.1521 46.5484 22.1909 46.5032Z" fill="#263238"/>
<path d="M18.2624 78.5512C19.9872 77.3819 17.6164 76.0124 17.6164 76.0124C17.6164 76.0124 21.4924 77.1623 22.7844 75.2695C24.0764 73.3767 21.1306 71.8909 20.9239 71.7746C21.1306 71.8392 24.7224 72.7953 25.8464 70.7604C26.9704 68.7255 23.818 67.5885 23.6112 67.5304C23.8244 67.5304 26.6216 67.4077 27.1255 65.6635C27.9847 62.6725 19.9484 62.3236 18.2171 60.4955C18.2171 60.4955 18.9923 56.5419 19.0569 56.4321C18.5372 57.3193 17.7305 58.0029 16.7701 58.3701C15.0324 58.8611 13.469 59.1453 12.7649 59.9787C12.4364 60.3433 12.2339 60.804 12.1873 61.2926C12.1408 61.7812 12.2527 62.2718 12.5065 62.6919C12.5065 62.6919 10.3101 62.4399 9.3734 64.0162C8.89536 64.8237 9.76746 66.3159 9.76746 66.3159C9.27043 66.2804 8.77319 66.3821 8.33003 66.61C7.88687 66.8378 7.51483 67.183 7.25452 67.6079C6.65374 68.7707 7.62274 70.0821 7.62274 70.0821C7.62274 70.0821 5.86562 70.7281 5.63952 72.1235C5.2067 74.9206 14.5672 81.0447 18.2624 78.5512Z" fill="#AD6359"/>
<path d="M7.77353 70.321C7.77353 70.321 7.70247 70.321 7.72831 70.3663C10.406 73.2508 13.8986 75.2517 17.7413 76.1027C17.8641 76.1027 17.9545 75.9348 17.8253 75.8831C14.2229 74.5259 10.837 72.6523 7.77353 70.321Z" fill="#263238"/>
<path d="M9.73908 66.2902C9.73484 66.2868 9.72997 66.2843 9.72475 66.2828C9.71953 66.2812 9.71407 66.2808 9.70867 66.2814C9.70327 66.282 9.69804 66.2836 9.69329 66.2863C9.68853 66.2889 9.68433 66.2924 9.68094 66.2967C9.67754 66.3009 9.67502 66.3058 9.67351 66.311C9.672 66.3162 9.67153 66.3217 9.67213 66.3271C9.67273 66.3325 9.67438 66.3377 9.677 66.3424C9.67962 66.3472 9.68316 66.3514 9.6874 66.3548C12.6726 69.5024 16.6843 71.4796 20.9989 71.9298C21.1474 71.9298 21.296 71.8006 21.1216 71.7747C18.2275 71.3355 12.5815 68.5124 9.73908 66.2902Z" fill="#263238"/>
<path d="M23.9586 67.4336C19.7467 66.9555 16.1097 65.1726 12.6407 62.8082C12.5954 62.8082 12.5567 62.8405 12.5825 62.8793C13.965 64.5007 16.3358 65.7798 18.2673 66.6196C20.041 67.4317 21.9969 67.7636 23.9392 67.5822C24.0426 67.5757 24.0426 67.4465 23.9586 67.4336Z" fill="#263238"/>
<path d="M7.53655 70.0821C7.18567 69.7288 6.93955 69.2853 6.82552 68.8006C6.71148 68.316 6.73399 67.8092 6.89055 67.3366C7.09289 66.8916 7.44819 66.534 7.89185 66.3288C8.42067 66.1459 8.98615 66.0949 9.53915 66.1802C9.2308 65.7456 9.06142 65.2278 9.05335 64.695C9.04527 64.1622 9.19889 63.6395 9.49393 63.1957C9.82476 62.8162 10.2857 62.5742 10.7859 62.5174C11.3569 62.462 11.9327 62.4837 12.4978 62.582C12.2624 62.3049 12.0949 61.9766 12.0085 61.6234C11.9222 61.2701 11.9194 60.9016 12.0004 60.5471C12.1073 60.1621 12.3034 59.8077 12.5728 59.5125C12.8421 59.2173 13.1772 58.9897 13.5508 58.8481C14.4298 58.5299 15.3423 58.3132 16.2705 58.2021C16.7469 58.1307 17.2132 58.0027 17.6594 57.821C18.1402 57.6009 18.5433 57.2406 18.8157 56.7874C18.8674 56.7099 18.8674 56.7874 18.8157 56.8585C18.6348 57.1663 18.4033 57.4415 18.1309 57.6724C17.8481 57.9187 17.533 58.1252 17.1943 58.2861C16.3534 58.6033 15.4895 58.856 14.6103 59.0419C13.8395 59.2472 13.1582 59.7014 12.6723 60.3339C12.4502 60.6687 12.3254 61.0585 12.3117 61.4599C12.298 61.8614 12.396 62.2588 12.5947 62.6079C12.5947 62.6079 12.5947 62.6918 12.5366 62.6854C12.0208 62.6831 11.5066 62.7439 11.0056 62.8663C10.5899 62.9656 10.2153 63.1913 9.93321 63.5123C9.67185 63.9216 9.52238 64.3923 9.49971 64.8775C9.47704 65.3626 9.58196 65.8452 9.80401 66.2771C9.2469 66.3145 8.70153 66.4546 8.19547 66.6906C7.86693 66.8926 7.60256 67.1839 7.43319 67.5304C7.23969 67.9296 7.16079 68.3747 7.20527 68.816C7.24975 69.2574 7.41587 69.6778 7.68513 70.0304C7.68761 70.041 7.68761 70.0521 7.68513 70.0627C7.68513 70.0627 7.12311 70.2953 7.09727 70.2953C7.23918 70.2152 7.38588 70.144 7.53655 70.0821Z" fill="#263238"/>
<path d="M39.6065 33.3119C37.5522 34.0677 33.5341 31.2705 31.7835 28.8286C31.6672 28.6607 31.5509 21.3932 31.3829 19.959C31.3442 19.6619 40.666 21.0702 40.666 21.0702C40.368 22.9281 40.2985 24.8155 40.4592 26.6904C40.4851 26.8971 41.5897 32.5883 39.6065 33.3119Z" fill="#AD6359"/>
<path d="M40.666 21.0701C40.666 21.0701 40.5626 21.6709 40.4786 22.5624C37.8946 25.7342 33.7473 26.0702 31.6413 25.9991C31.5703 23.7446 31.4863 20.8311 31.3829 19.959C31.3442 19.6683 40.666 21.0701 40.666 21.0701Z" fill="#263238"/>
<path d="M31.4186 4.47437C31.4186 4.47437 28.447 5.62424 27.8397 8.59584C27.2325 11.5674 27.8397 14.7199 28.0852 14.8814C28.3307 15.0429 31.4186 4.47437 31.4186 4.47437Z" fill="#263238"/>
<path d="M43.42 8.31171C44.1823 11.5869 41.8696 20.7537 39.4406 22.6658C35.9264 25.4436 30.4741 25.3661 28.1873 21.2123C25.978 17.1878 29.208 5.30135 31.8889 3.58945C35.8295 1.07651 42.2766 3.46671 43.42 8.31171Z" fill="#AD6359"/>
<path d="M34.2061 13.4602C34.2061 13.4602 34.2514 13.499 34.2449 13.5248C34.1157 14.1708 34.0705 14.9008 34.6131 15.2109C34.6131 15.2109 34.6131 15.2496 34.6131 15.2432C33.9154 15.0235 33.98 14.0351 34.2061 13.4602Z" fill="#263238"/>
<path d="M34.8815 12.8918C35.9215 12.9887 35.6438 15.0559 34.6877 14.9654C33.7316 14.875 34.0158 12.8078 34.8815 12.8918Z" fill="#263238"/>
<path d="M30.6011 12.8207C30.6011 12.8207 30.5494 12.8207 30.5429 12.8724C30.4848 13.5184 30.3104 14.2354 29.7031 14.3775V14.4163C30.4266 14.4034 30.6463 13.4344 30.6011 12.8207Z" fill="#263238"/>
<path d="M30.1129 12.0777C29.0922 11.871 28.7498 13.9253 29.6994 14.1191C30.6491 14.3129 30.9656 12.2521 30.1129 12.0777Z" fill="#263238"/>
<path d="M34.0618 18.8028C33.8939 18.9384 33.7195 19.1322 33.4869 19.1322C33.2479 19.1074 33.0168 19.0326 32.8086 18.9126C32.8878 19.0476 33.0026 19.1582 33.1405 19.2322C33.2784 19.3063 33.434 19.341 33.5903 19.3325C33.7264 19.3156 33.8537 19.2558 33.9536 19.1617C34.0535 19.0676 34.1208 18.9441 34.1458 18.8092C34.1458 18.8092 34.0877 18.7705 34.0618 18.8028Z" fill="#263238"/>
<path d="M31.0709 15.8569C31.0709 15.8569 30.7995 16.7872 30.7349 17.2394C31.6132 17.3678 32.4683 17.6224 33.2737 17.9952C33.4611 18.0856 33.4869 17.9241 33.2737 17.7562C32.6727 17.268 31.9392 16.971 31.1678 16.9035C31.1678 16.7743 31.6135 15.4758 31.5424 15.4564C31.1935 15.4364 30.8435 15.4646 30.5024 15.5404C31.0063 13.6024 31.7944 11.7161 32.2983 9.7264C32.2983 9.65534 32.2143 9.61658 32.182 9.67472C31.2499 11.6477 30.5142 13.7076 29.9856 15.8246C29.9016 16.1089 30.8771 15.9086 31.0709 15.8569Z" fill="#263238"/>
<path d="M35.6723 12.1877C35.4268 12.0326 35.233 11.8453 35.0263 11.6709C34.8196 11.4964 34.5483 11.3349 34.4514 11.0249C34.4307 10.9315 34.4424 10.8339 34.4847 10.7482C34.527 10.6624 34.5973 10.5937 34.6839 10.5533C34.8657 10.4938 35.0601 10.4846 35.2466 10.5267C35.4331 10.5688 35.6048 10.6606 35.7434 10.7923C36.0696 11.0114 36.3005 11.3462 36.3894 11.729C36.4064 11.819 36.3961 11.9119 36.3599 11.996C36.3236 12.0801 36.263 12.1513 36.1859 12.2007C36.1087 12.25 36.0186 12.2751 35.9271 12.2728C35.8356 12.2705 35.7468 12.2408 35.6723 12.1877Z" fill="#263238"/>
<path d="M29.6622 9.8039C29.9464 9.75868 30.2048 9.68116 30.4826 9.6101C30.7818 9.58451 31.0638 9.45942 31.2837 9.2548C31.3413 9.17853 31.3725 9.08554 31.3725 8.98994C31.3725 8.89434 31.3413 8.80135 31.2837 8.72508C31.142 8.59618 30.9687 8.50731 30.7813 8.46757C30.594 8.42784 30.3995 8.43868 30.2178 8.49898C29.8295 8.56394 29.4795 8.77122 29.2358 9.08038C29.1867 9.15323 29.1592 9.23851 29.1565 9.32635C29.1538 9.41419 29.176 9.501 29.2207 9.57671C29.2653 9.65243 29.3304 9.71395 29.4086 9.75416C29.4867 9.79437 29.5747 9.81162 29.6622 9.8039Z" fill="#263238"/>
<path d="M41.8986 16.1411C39.9994 15.9538 41.033 7.57518 41.033 7.57518C39.8607 7.97451 38.6342 8.19235 37.396 8.22118C36.1451 8.17718 34.9032 7.99079 33.6945 7.66562C33.4361 7.56872 36.8663 6.59973 36.8663 6.59973C36.8663 6.59973 28.4295 7.33616 28.1453 5.747C28.0419 5.1979 29.6117 0.197864 36.6144 0.514404C41.7824 0.746964 44.1919 6.14752 44.1919 6.14752C44.1919 6.14752 46.7049 8.94471 46.2721 10.2109C45.5356 12.4331 43.9142 16.3414 41.8986 16.1411Z" fill="#263238"/>
<path d="M40.748 16.1864C40.748 16.1864 43.1059 13.3699 44.4044 14.2484C45.7028 15.127 43.7584 19.3195 42.0917 19.7782C41.884 19.8503 41.664 19.8799 41.4447 19.865C41.2253 19.8502 41.0113 19.7912 40.8153 19.6917C40.6193 19.5922 40.4453 19.4542 40.3039 19.2859C40.1625 19.1176 40.0565 18.9225 39.9922 18.7123L40.748 16.1864Z" fill="#AD6359"/>
<path d="M72.2145 54.6621C77.46 50.6117 72.447 30.0495 69.3979 22.4784C68.5 20.2497 54.2557 24.4164 54.921 26.9164C58.726 41.0574 66.4715 59.1001 72.2145 54.6621Z" fill="#AD6359"/>
<path d="M57.2773 34.6749L58.8471 38.5509C59.3833 39.8429 59.9066 41.1349 60.488 42.4269C61.0694 43.7189 61.6314 44.9657 62.2257 46.2254C62.82 47.4851 63.4789 48.719 64.1249 49.9593C63.3076 48.8211 62.5632 47.6322 61.8962 46.3998C61.2502 45.166 60.6042 43.8998 60.0422 42.6207C59.4802 41.3416 58.9634 40.0367 58.4983 38.706C58.0332 37.3752 57.6326 36.038 57.2773 34.6749Z" fill="#263238"/>
</svg>
